# xmcd
#
# Track frame offsets: 
#        150
#        16585
#        36817
#        54380
#        73482
#        90185
#        104385
#        123775
#        143402
#        163232
#        179345
#        196815
#        214117
#        230982
#
# Disc length: 3284 seconds
#
# Revision: 3
# Processed by: cddbd v1.4PL0 Copyright (c) Steve Scherf et al.
# Submitted via: ExactAudioCopy v0.90b4
#
DISCID=ba0cd20e
DTITLE=Kim Richey - Glimmer
DYEAR=1999
DGENRE=Folk
TTITLE0=Can't Lose Them All
TTITLE1=Other Side Of Town
TTITLE2=Come Around
TTITLE3=Lay It Down
TTITLE4=Hello Old Friend
TTITLE5=The Way It Never Was
TTITLE6=Good At Secrets
TTITLE7=Keep Me
TTITLE8=If You Don't Mind
TTITLE9=So It Goes
TTITLE10=Long Way Back
TTITLE11=Didn't I
TTITLE12=Strength In You
TTITLE13=Gravity
EXTD=
EXTT0=
EXTT1=
EXTT2=
EXTT3=
EXTT4=
EXTT5=
EXTT6=
EXTT7=
EXTT8=
EXTT9=
EXTT10=
EXTT11=
EXTT12=
EXTT13=
PLAYORDER=
